<svg xmlns="http://www.w3.org/2000/svg" width="659.956" height="189.653" viewBox="0 0 659.956 189.653"><g><linearGradient id="a" gradientUnits="userSpaceOnUse" y1="94.827" x2="659.956" y2="94.827"><stop offset="0" stop-color="#C09614"/><stop offset=".4" stop-color="#FFF59B"/><stop offset=".75" stop-color="#FFF59B"/><stop offset="1" stop-color="#C09614"/></linearGradient><path fill="url(#a)" d="M120.222 10.442l-59.827 83.76 15.787-83.734H6.772l20.992 23.448L0 181.416l44.016-.34L60.17 95.398l43.36 85.94h52.08L110.206 94.66l61.647-84.218h-51.632zm81.01 22.784l-28.265 147.44h93.92l6.676-37.082h-49.408l5.786-29.71h48.964l7.345-36.64h-50.077l6.01-29.71 49.63-.448 7.122-36.86H180.312l20.92 23.01zM607.774 2.62c-44.783-12.173-97.63 19.243-118.038 70.168-20.407 50.924-.647 102.074 44.14 114.247 44.78 12.17 97.63-19.246 118.035-70.17 20.41-50.927.648-102.076-44.136-114.246zm4.566 103.49c-10.448 26.074-37.506 42.158-60.435 35.927-22.93-6.233-33.045-32.42-22.6-58.494 10.45-26.074 37.508-42.16 60.437-35.927 22.93 6.23 33.05 32.42 22.598 58.494zM429.356 31.888L417.56 92.203 332.763 3.74l-33.16 176.704h43.624l15.58-81.09 84.57 88.46 33.83-178.49h-68.993l21.143 22.564z"/></g></svg>