<svg xmlns="http://www.w3.org/2000/svg" width="796.298" height="223.694" viewBox="0 0 796.298 223.694"><path fill="#fff" d="M606.238 106.875c2.78 0 5.452 2.143 5.97 8.176.135 2.818-.047 8.18-1.613 14.216-1.56 6.038-4.18 11.4-5.78 14.223-3.66 6.03-7.444 8.176-10.23 8.176-2.873 0-5.535-2.146-6.057-8.177-.133-2.822.037-8.186 1.61-14.224 1.57-6.035 4.175-11.398 5.784-14.215 3.665-6.032 7.436-8.175 10.316-8.175zM374.855 66.093l-4.258 16.37h9.58l4.256-16.37h-9.578zm-20.446 16.37h9.574l4.255-16.37h-9.574l-4.257 16.37zm-74.714 45.862h14.45l-.322 1.103-.397 1.267c-.3.904-.683 1.922-1.2 3.053-1.034 2.262-2.61 4.975-5.172 8.124-5.627 7.245-12.524 9.66-16.793 8.993-6.996-1.21-9.533-9.53-9.966-17.574-.59-11.127 6.33-36.078 17.027-46.4 4.635-3.755 8.22-5.504 12.572-5.504 6.79 0 12.084 4.422 11.32 16.095h11.927l.215-1.1.358-1.674c.26-1.292.535-2.93.666-4.85.26-3.84-.056-8.804-2.222-14.37-3.894-9.795-12.54-10.728-18.547-10.728-5.484 0-9.94 1.738-13.01 3.484-25.067 14.352-40.07 64.383-31.11 86.512l.717 1.732c.258.61.536 1.248.853 1.898.635 1.295 1.426 2.633 2.51 3.86 2.168 2.466 5.512 4.51 11.14 4.974 12.256 1.078 20.185-8.977 24.765-14.88l-1.604 12.198h7.84l13.73-52.836h-25.427l-4.317 16.625zm50.323-61.96L304.6 164.14h12.187l25.424-97.775h-12.19zM386.03 91.44h-12.188l-12.21 46.945c-1.447 4.564-4.34 11-12.052 12.207-4.555.27-6.3-1.643-6.678-4.422-.374-2.784.62-6.44 1.545-9.66l11.712-45.07h-12.19l-13.144 50.565c-5.72 24.01 4.646 25.688 11.648 24.686 4.686-.67 11.097-4.944 14.63-11.536h.175l-2.343 8.984h12.195l18.9-72.697zm42.713 27.094c1.956-9.686 2.135-19.837-2.492-24.273-2.415-2.315-6.578-4.103-11.404-4.024-5.516.09-13.944 1.074-24.57 20.526-5.02 9.25-7.824 21.724-8.98 28.165-1.88 10.592-1.475 28.958 13.45 28.292 6.918-.31 11.003-2.37 16.078-6.565 2.77-2.29 10.158-11.94 12.648-21.866h-11.668c-4.973 11.025-9.158 13.148-12.14 12.877-3.8-.135-6.59-1.74-5.548-13.142.784-8.72 4.86-19.05 5.856-21.197 3.118-6.97 7.035-10.62 11.23-10.724 2.753-.07 7.56.998 5.87 11.93h11.67zm19.277-52.17l-25.418 97.776h12.192l5.893-22.666 7.24-8.45 2.97 31.115h14.278l-5.3-44.932 23.157-27.765h-13.932l-22.6 28.298h-.166l13.877-53.376h-12.192zm21.68 76.447c-1.135 4.7-2.84 15.295 4.752 21.596 2.012 1.61 5.6 2.553 9.634 2.812 4.14.14 8.702-.668 12.46-2.412 9.164-4.428 14.377-16.094 16.256-23.332 2.377-9.122-1.234-14.12-6.22-16.614l-12.48-6.75c-4.094-2.672-1.96-8.906 1.48-11.508 3.333-2.517 6.89-2.74 9.03-1.47 3.09 1.84 3.38 4.963 2.113 9.78h11.758c1.402-5.365 2.965-12.737-1.943-19.308-3.09-4.16-8.113-5.633-13.234-5.37-5.115.276-10.375 2.42-13.907 5.64-3.753 3.347-8.312 9.52-10.703 19.037-1.617 6.577-2.146 13.428 5.504 17.184l11.293 5.647c2.868 1.228 3.367 4.87 2.17 8.31-1.198 3.438-4.093 6.676-8.01 7.092-5.314.564-8.905-.836-7.935-10.332h-12.016zm118.076-51.366l-26.54 102.07h12.2l9.584-36.882c1.19 5.518 3.514 10.586 9.965 10.586 6.61 0 10.27-2.004 15.676-8.04 12.748-14.22 20.258-46.134 15.125-60.217-1.403-3.622-4.267-9.39-10.967-8.724-3.83.337-6.51 1.848-8.853 4.045-1.172 1.1-2.262 2.37-3.373 3.75l-1.69 2.15-1.796 2.262 2.857-10.998h-12.187zm-9.406 4.697c1.357-3.217 2.857-12.34 1.256-18.912-3.044-12.07-14.783-12.47-18.17-12.47-15.504 0-25.816 11.53-30.904 27.09-5.158 15.827-1.486 23.466 4.447 27.092 1.767 1.074 3.876 1.882 6.08 2.59 1.105.355 2.23.687 3.355 1.015l3.325.992c4.324 1.375 8.067 3.053 9.283 6.407 1.878 4.827-.714 12.466-4.546 16.495-2.28 2.41-6.9 4.423-11.29 4.554-4.427.27-8.74-1.2-10.427-5.764-1.27-3.488-.744-7.516-.083-10.062h-12.713c-1.978 9.258-1.692 18.91 2.325 25.214 3.335 5.23 10.56 6.572 13.807 6.836 7.18.582 14.837-1.47 21.625-6.836 9.99-7.908 19.415-31.117 15.167-42.915-2.368-6.307-9.226-8.72-12.467-9.66l-2.843-.797c-1.252-.357-2.734-.796-4.23-1.29-2.987-.986-6.013-2.196-7.29-3.42-2.158-2.064-3.56-3.612-1.456-10.324 2.524-8.042 8.1-11.39 14.418-11.263 8.897.273 11.282 7.515 9.05 15.427h12.28zM642.134 83.138h12.186l4.36-16.773h-12.192l-4.354 16.773zM621.07 164.14h12.193l18.897-72.7h-12.195l-18.894 72.7zm21.502 0h12.198l10.633-40.91c5.6-15.825 13.15-14.747 18.135-13.812l4.987-19.182c-3.585-.935-7.433 1.057-10.245 3.36-4.377 3.59-6.195 7.638-8.1 11.933H670l3.664-14.086h-12.188l-18.904 72.696zM706.747 134.1c-2.088 8.045-5.416 15.826-13.097 17.566-5.575 1.34-6.946-1.74-6.53-6.03.492-5.907 4.36-10.73 8.385-11.81.842-.234 1.763-.393 2.738-.55l1.5-.24 1.566-.297c2.12-.452 4.36-1.19 6.527-2.8l-1.09 4.16zm57.465-13.01c1.693-6.84 6.783-15.694 14.135-15.16 7.17.54 6.025 9.656 4.586 15.16h-18.72zm28.07 12.604c2.53-8.717 5.073-18.507 3.562-29.106-1.077-7.24-4.975-14.352-14.207-14.352-5.39 0-18.547 1.34-28.987 29.775-2.067 5.64-3.542 11.272-4.476 15.56-.896 4.424-1.29 7.643-1.43 8.853-.424 6.307.743 12.877 3.947 17.305 2.468 3.215 6.234 5.49 10.847 5.49 8.273 0 21.887-9.516 27.64-23.603H777.17c-1.59 3.755-5.42 7.115-9.176 8.183-3.736.94-7.36-.533-8.61-6.438-.76-3.755.284-7.78 1.558-11.667h31.34zm-79.058 30.444l.652-2.543c-1.006-2.146-1.39-5.37-.465-8.59l10.327-39.702c3-11.534.788-17.43-3.15-20.38-1.962-1.48-5.744-2.688-10.447-2.688-6.443 0-19.887 2.15-26.09 25.35h11.497c1.532-5.23 4.113-11.403 11.08-11.798 4.944-.283 7.48 2.01 6.294 6.568-.726 3.484-2.687 6.97-5.173 8.178-1.63.74-3.488 1.304-5.654 1.823-1.084.258-2.242.505-3.487.757l-4.003.774c-11.885 2.28-16.727 12.744-19.635 22.934-4.012 14.083-1.465 22.397 8.113 22.397 7.138 0 11.96-4.15 17.833-10.318-.758 2.548-1.004 5.49-.578 7.237h12.89zM746 66.365l-25.42 97.775h12.19l25.417-97.775H746z"/><path fill="#FFF482" d="M132.73 1.858c1.507.346 2.897.656 3.6.89l-9.925 39.644s3.755.535 6.74 1.24c1.35.32 2.178.536 2.178.536l-18.445 45.84 6.373-47.584s-2.16-.11-3.384-.166c-1.444-.067-3.523-.067-4.26-.035L117.147 0l.475.04s3.646.2 6.922.534c3.275.33 6.683.94 8.19 1.284z"/><path fill="#DBE283" d="M101.62 44.37s1.674-.394 4.327-.737c.75-.1 3.49-.404 3.49-.404L108.19 88.1l-9.727-42.423s-1.41.404-3.285 1.142c-1.046.41-3.288 1.44-3.288 1.44L77.215 5.79l-.213-.592s1.578-.64 3.977-1.274c2.395-.636 5.623-1.467 9.103-2.11C93.563 1.167 96.69.738 96.69.738l4.93 43.63z"/><path fill="#FFED00" d="M168.628 15.695c2.24 1.312 4.594 2.984 4.594 2.984l-21.7 31.423s3.25 1.924 4.605 2.762c1.356.836 3.48 2.314 3.648 2.538l-34.83 37.79 23.428-44.197s-1.6-.953-3.01-1.628c-1.405-.676-3.798-1.69-3.798-1.69L156.187 9.39s1.757.814 3.657 1.64c1.9.83 6.548 3.35 8.784 4.663z"/><path fill="#94C356" d="M80.224 55.873s1.845-1.342 3.59-2.516c1.634-1.102 3.35-2.112 3.35-2.112l12.94 39.052-21.828-32.614s-1.005.84-2.11 1.745c-1.11.905-2.985 2.65-2.985 2.65l-31.224-38.6s.917-.94 3.354-2.72c2.437-1.775 6.19-4.35 8.652-5.768 2.465-1.418 4.228-2.212 4.228-2.212s21.308 42.287 22.034 43.095z"/><path fill="#009F5E" d="M67.325 69.92c1.64-2.185 2.972-3.72 2.972-3.72L93.33 95.41 64.128 75.206s-.664 1.154-1.406 2.52c-1.206 2.216-1.616 3.165-1.616 3.165l-46.28-26.46c.068-.2 3.07-4.895 4.562-7.043 1.49-2.145 4.995-6.7 5.937-7.78.9-1.032 1.44-1.576 1.44-1.576l38.137 35.236s.532-.824 2.423-3.345z"/><path fill="#FBBA00" d="M215.642 71.28c1.237 3.1 2.245 6.39 2.87 8.5.625 2.113.982 3.47.982 3.47l-31.04 8.144s.24 1.018 1.212 4.41c1.143 4.01 1.31 5.187 1.31 5.187s-56.372 6.496-56.25 6.54l52.128-19.578s-.823-2.084-1.794-4.168c-.645-1.387-1.794-3.684-1.794-3.684l29.52-15.268s.842 1.388 2.856 6.447z"/><path fill="#88CDD3" d="M57.63 93.967s.298-1.73.937-4.035c.786-2.853 1.265-4.312 1.265-4.312l28.91 17.304-31.255-6.973c-.338 2.278-.532 4.17-.63 5.72L.645 93.5s.65-3.884 1.33-6.957c.68-3.072.87-4 2-7.694 1.13-3.695 1.7-4.868 1.7-4.868L57.63 93.967z"/><path fill="#F39200" d="M223.208 105.002s.197 5.51.17 7.22c-.026 1.71-.023 4.15-.17 6.686-.147 2.537-.536 5.205-.536 5.205l-28.065-3.344s.05.53-.288 5.38c-.28 3.982-.584 5.282-.584 5.282l-55.206-13.96s-.147 1.99-.536 3.686l-5.543-3.235c.02-.11 6.126-1.228 6.126-1.228l.097-.92 55.4.776s-.05-1.793-.24-4.12c-.17-2.03-.537-4.798-.537-4.798l29.81-3.102s.11-.008.102.472z"/><path fill="#00AFCB" d="M86.543 111.537l-27.54 5.383s.082.986.774 3.955L5.042 134.143s.732 3.28 1.6 6.11c.867 2.828 2.054 6.276 2.054 6.276l-3.573 1.346s-.078-.113-.858-2.533c-.776-2.42-2.236-7.58-3.1-11.487C.297 129.944 0 127.893 0 127.893l3.057-.68s-.73-3.39-1.165-6.253c-.276-1.8-.777-6.542-.777-6.542l56.78-.326-.553-4.763c.006-.308-.194-3.298-.194-3.298l29.395 5.505z"/><path fill="#009FE3" d="M67.034 132.935s.213.385 1.165 1.79c.976 1.45 1.308 1.795 1.308 1.795l-47.355 33.445s.698 1.315 2.906 4.218c3.25 4.266 4.17 5.33 4.17 5.33l-4.413 3.492s-2.47-2.812-4.797-6.107c-2.085-2.956-2.922-3.995-4.75-7.03-1.84-3.053-2.52-4.41-2.52-4.41l4.064-2.75s-.855-1.348-2.417-4.523c-1.6-3.244-2.277-5.086-2.277-5.086l53.268-21.427s-.63-1.064-1.503-2.86c-1.328-2.727-1.55-3.293-1.55-3.293s26.124-5.333 26.224-5.36l-21.526 12.775z"/><path fill="#E30613" d="M136.978 126.343s53.656 21.373 53.656 21.23c0 0 .313-.615 1.453-5.043.777-3.003 1.262-5.136 1.262-5.136l25.205 6.93s-.97 3.295-2.132 6.448c-.902 2.44-2.96 7.124-4.225 9.773-.773 1.616-1.497 2.777-1.497 2.777l-20.986-11.147s-.533 1.262-2.327 4.99c-2.283 4.752-2.825 5.3-2.715 5.287l-48.147-34.42s-.08.25-.902 1.942c-.824 1.697-1.31 2.52-1.31 2.52l-5.103-7.098 7.478 1.77.29-.823z"/><path fill="#0075BF" d="M79.67 145.825s.714.676 2.78 1.888l-33.35 47.7s1.748 1.358 4.315 3.103c2.978 2.023 5.16 3.352 5.16 3.352l-3.9 6.438s-.725-.352-3.1-1.842c-3.25-2.035-4.558-2.91-7.805-5.333-3.178-2.373-5.217-4.305-5.217-4.305l4.343-5.192s-2.615-2.133-4.945-4.315c-2.924-2.743-3.534-3.585-3.534-3.585l43.33-38.8s-.57-.533-2.526-2.456c-1.69-1.66-2.458-2.71-2.458-2.71l7.422-4.615 13.35-7.776-13.864 18.45z"/><path fill="#E6007E" d="M131.212 137.876s.435-.435.967-1.064l43.428 39.357s1.002-1.063 3.44-4.266c2.284-2.997 2.998-4.156 2.998-4.156l17.22 12.762s-.842 1.375-3.157 4.093c-2.312 2.722-4.75 5.19-7.028 7.225-1.738 1.553-4.078 3.288-4.078 3.288l-12.595-14.343s-.778.73-3.446 3.25c-2.39 2.265-4.312 3.878-4.312 3.878l-33.784-49.246c-.776.776-1.84 2.083-3.683 3.686l-3.86-10.93 7.887 6.466z"/><path fill="#004F9F" d="M94.71 151.883c.972.292 2.23.342 2.716.485l-14.493 57.195s1.538.463 5.09 1.02c4.943.774 5.767.774 5.767.774l-1.84 10.566s-1.31-.19-5.284-.92c-2.59-.474-3.783-.875-7.32-1.843-3.018-.826-5.915-1.938-5.915-1.938l3.07-8.624s-2.352-.773-5.83-2.136c-2.23-.87-4.46-1.892-4.46-1.892l26.224-52.977s-1.06-.312-2.183-.727c-1.84-.68-3.002-1.31-3.002-1.31l12.88-16.762-5.417 19.09z"/><path fill="#DD6CA6" d="M122.05 146.748c.873-.485 1.696-.97 2.373-1.456l25.64 52.93s2.184-1.212 4.9-2.81c2.695-1.59 4.94-3.103 4.94-3.103l9.548 14.977s-1.787 1.312-3.78 2.327c-2.567 1.31-5.04 2.715-8.044 4.07-2.67 1.21-6.157 2.62-6.157 2.62l-5.77-15.174s-2.843 1.228-5.04 2.183-5.623 2.23-5.623 2.23l-13.572-58.213s-.727.436-2.083 1.115c-1.38.688-1.55.773-2.956 1.355l-.292-15.076 5.915 12.024z"/><path fill="#BC90C1" d="M109.545 151.98s.727 0 2.47-.385l6.107 58.454s.92-.048 5.283-.872c2.712-.514 5.674-1.406 5.674-1.406l2.827 14.015s-1.522.354-4.237.816c-2.712.464-5.583.67-9.307.92-3.72.255-6.492.148-6.492.148l-.146-12.41s-1.503.098-4.7.195c-2.913.087-5.43-.098-5.43-.098l6.303-58.938c-3.25.192-5.19.143-5.19.143l5.265-17.104 1.573 16.52z"/><path fill-rule="evenodd" clip-rule="evenodd" fill="#fd0" d="M202.493 46.425L174.058 67.45s1.938 2.47 3.294 4.362c1.06 1.475 2.424 3.636 2.424 3.636L131.25 99.485l39.755-34.652s-1.14-1.547-2.23-2.665c-1.844-1.89-3.2-3.2-3.2-3.2l24.48-26.9s4.99 5.232 6.57 7.097c1.458 1.717 5.868 7.26 5.868 7.26z"/></svg>